<?xml version="1.0" encoding="utf-8"?>
<!-- Generator: Adobe Illustrator 21.0.0, SVG Export Plug-In . SVG Version: 6.00 Build 0)  -->
<svg version="1.1" id="Layer_1" xmlns="http://www.w3.org/2000/svg" xmlns:xlink="http://www.w3.org/1999/xlink" x="0px" y="0px"
	 viewBox="0 0 32 32" style="enable-background:new 0 0 32 32;" xml:space="preserve">
<style type="text/css">
	.st0{fill:#086D9B;}
	.st1{fill:#A0A0A0;}
</style>
<title>liwhite</title>
<g>
	<path class="st0" d="M17,14.8L17,14.8L17,14.8L17,14.8z"/>
	<path class="st1" d="M16,0C7.2,0,0,7.2,0,16s7.2,16,16,16s16-7.2,16-16S24.8,0,16,0z M11.6,23.6H8.2V13.3h3.4V23.6z M9.9,11.9
		L9.9,11.9c-1,0.1-1.8-0.7-1.9-1.7c-0.1-1,0.7-1.8,1.7-1.9c0.1,0,0.2,0,0.3,0c1-0.1,1.8,0.7,1.9,1.7c0.1,1-0.7,1.8-1.7,1.9
		C10.1,11.9,10,11.9,9.9,11.9z M24,23.6h-3.4v-5.5c0-1.4-0.5-2.3-1.7-2.3c-0.8,0-1.5,0.5-1.8,1.3c-0.1,0.3-0.1,0.6-0.1,0.8v5.8h-3.5
		c0,0,0-9.4,0-10.3h3.4v1.5c0.6-1.1,1.8-1.8,3.1-1.7c2.3,0,4,1.5,4,4.6L24,23.6L24,23.6z"/>
</g>
</svg>
