<svg id="Layer_1" data-name="Layer 1" xmlns="http://www.w3.org/2000/svg" viewBox="0 0 32 32">
  <defs>
    <style>
      .cls-1 {
        fill: #086d9b;
      }

      .cls-2 {
        fill: #fff;
      }
    </style>
  </defs>
  <title>liwhite</title>
  <g>
    <path class="cls-1" d="M17.46,15.32v0l0,0h0Z" transform="translate(-0.5 -0.5)"/>
    <path class="cls-2" d="M16.5,0.5a16,16,0,1,0,16,16A16,16,0,0,0,16.5.5ZM12.13,24.15H8.7V13.83h3.43V24.15ZM10.42,12.42h0a1.79,1.79,0,1,1,0-3.57A1.79,1.79,0,1,1,10.42,12.42ZM24.5,24.15H21.07V18.63c0-1.39-.5-2.33-1.74-2.33a1.88,1.88,0,0,0-1.76,1.26,2.33,2.33,0,0,0-.11.84v5.76H14s0-9.35,0-10.32h3.43v1.46a3.4,3.4,0,0,1,3.09-1.7c2.26,0,3.95,1.47,3.95,4.64v5.92Z" transform="translate(-0.5 -0.5)"/>
  </g>
</svg>
