<?xml version="1.0" encoding="utf-8"?>
<!-- Generator: Adobe Illustrator 21.0.0, SVG Export Plug-In . SVG Version: 6.00 Build 0)  -->
<svg version="1.1" id="Layer_1" xmlns="http://www.w3.org/2000/svg" xmlns:xlink="http://www.w3.org/1999/xlink" x="0px" y="0px"
	 viewBox="0 0 210.1 96.1" style="enable-background:new 0 0 210.1 96.1;" xml:space="preserve">
<style type="text/css">
	.st0{fill:#ED1C24;}
	.st1{fill:#FFFFFF;}
	.st2{fill:#FFFFFF;stroke:#939598;stroke-width:0.5;}
	.st3{fill:#77787B;}
	.st4{fill:none;stroke:#ED1C24;stroke-width:0.5;}
</style>
<title>logo</title>
<circle class="st0" cx="26.8" cy="32.6" r="21.4"/>
<path class="st1" d="M34.8,42.4h-2.9l-5.8-8.9h-2.5v8.9h-2.3V22.8h5.6c1.6-0.1,3.2,0.4,4.4,1.4c1.1,0.9,1.7,2.3,1.6,3.8
	c0,1.2-0.4,2.3-1.2,3.2c-0.8,1-2,1.6-3.2,1.9L34.8,42.4z M23.6,31.5h2.9c1.1,0.1,2.1-0.3,2.9-1c0.7-0.6,1.1-1.5,1.1-2.5
	c0-2.2-1.3-3.3-4-3.3h-2.9V31.5L23.6,31.5z"/>
<circle class="st0" cx="86.1" cy="32.6" r="21.4"/>
<path class="st1" d="M90.4,25c-1.1-0.4-2.2-0.6-3.3-0.6c-1,0-2,0.2-2.9,0.8c-0.7,0.5-1.2,1.4-1.1,2.3c0,1.2,1,2.2,2.9,3.1
	c1.4,0.7,2.4,1.1,2.8,1.4c0.5,0.3,1,0.6,1.5,1.1c0.5,0.5,0.9,1,1.2,1.6c0.3,0.6,0.4,1.4,0.4,2.1c0.1,1.7-0.6,3.3-1.9,4.4
	c-1.3,1-2.9,1.6-4.5,1.6c-1.5,0-3.1-0.3-4.4-1l0.5-2c1.2,0.6,2.6,0.9,3.9,1c1.1,0.1,2.2-0.3,3.1-1c0.8-0.7,1.2-1.7,1.2-2.8
	c0-0.8-0.3-1.6-0.8-2.2c-0.8-0.8-1.8-1.4-2.9-1.9c-1.4-0.6-2.3-1.1-2.7-1.3c-0.5-0.3-0.9-0.6-1.2-1c-0.4-0.4-0.7-0.9-0.9-1.4
	c-0.2-0.5-0.4-1.1-0.4-1.7c-0.1-1.5,0.6-2.9,1.8-3.8c1.3-0.9,2.8-1.4,4.4-1.4c1.3,0,2.6,0.2,3.9,0.6L90.4,25z"/>
<path class="st2" d="M145.3,33.9h-8.9V43h-2.9v-9.1h-9.1v-2.8h9.1V22h2.9V31h8.9V33.9L145.3,33.9z"/>
<circle class="st0" cx="183.5" cy="32.6" r="21.4"/>
<path class="st1" d="M191.9,42.4H189l-6.6-9.6l-2.1,2.3v7.4H178V22.8h2.3v9.4l8.7-9.4h2.6L184,31L191.9,42.4z"/>
<g>
	<path class="st3" d="M12.7,81.2c-0.8-0.3-1.5-0.4-2.3-0.4c-0.7,0-1.4,0.2-2,0.6c-0.5,0.4-0.8,1-0.8,1.6c0,0.8,0.6,1.6,2,2.3
		c1,0.5,1.7,0.8,2,0.9c0.4,0.2,0.7,0.5,1,0.8c0.4,0.3,0.7,0.7,0.9,1.1c0.2,0.5,0.3,1,0.3,1.5c0.1,1.2-0.5,2.4-1.4,3.2
		c-0.9,0.7-2.1,1.1-3.2,1.1C8,93.9,7,93.7,6,93.2l0.3-1.4c0.9,0.4,1.8,0.7,2.8,0.7c0.8,0,1.6-0.2,2.2-0.7c0.6-0.5,0.9-1.2,0.8-2
		c0-0.6-0.2-1.1-0.5-1.6c-0.6-0.6-1.2-1-2-1.3c-1-0.5-1.6-0.8-1.9-1c-0.3-0.2-0.6-0.4-0.9-0.7c-0.3-0.3-0.5-0.6-0.7-1
		c-0.2-0.4-0.2-0.8-0.2-1.2C5.8,82,6.3,81,7.1,80.4c0.9-0.7,2-1,3.2-1c0.9,0,1.9,0.1,2.8,0.4L12.7,81.2z"/>
	<path class="st3" d="M25.9,81h-4.3v12.7H20V81h-4.3v-1.3h10.3V81L25.9,81z"/>
	<path class="st3" d="M37.4,93.7h-2l-4.1-6.3h-1.8v6.3h-1.6v-14h3.9c1.1-0.1,2.2,0.3,3.1,0.9c0.8,0.7,1.2,1.7,1.1,2.7
		c0,0.8-0.3,1.6-0.8,2.3c-0.6,0.7-1.4,1.2-2.3,1.4L37.4,93.7z M29.5,85.9h2c0.8,0,1.5-0.2,2.1-0.7c0.5-0.4,0.8-1.1,0.8-1.8
		c0-1.6-1-2.3-2.9-2.3h-2V85.9L29.5,85.9z"/>
	<path class="st3" d="M48.8,93.7h-1.7l-1.6-4.9h-4.6l-1.6,4.9h-1.7l4.6-14h1.9L48.8,93.7z M45.1,87.3l-1.8-5.7l-1.8,5.7H45.1z"/>
	<path class="st3" d="M59.5,81h-4.3v12.7h-1.6V81h-4.3v-1.3h10.3V81L59.5,81z"/>
	<path class="st3" d="M69.3,93.7H62v-14h7.2v1.4h-5.6v4.3H69v1.4h-5.4v5.4h5.7L69.3,93.7L69.3,93.7z"/>
	<path class="st3" d="M81.4,92.7c-1.1,0.8-2.4,1.3-3.8,1.3c-1.6,0.1-3.1-0.6-4.1-1.8c-1-1.6-1.5-3.5-1.4-5.4
		c-0.1-1.9,0.4-3.7,1.4-5.3c1-1.3,2.5-2,4.2-1.9c0.7,0,1.3,0.1,2,0.3c0.6,0.1,1.1,0.4,1.6,0.7l-0.5,1.3c-0.9-0.5-2-0.8-3.1-0.8
		c-1.1-0.1-2.2,0.5-2.8,1.4c-0.7,1.4-1.1,2.9-0.9,4.4c0,3.9,1.3,5.8,3.8,5.8c0.8,0.1,1.5-0.1,2.2-0.6v-3.5h-2.5v-1.4h4.2V92.7z"/>
	<path class="st3" d="M91.1,93.7h-6.3v-1.4h2.4V81.1h-2.4v-1.4h6.3v1.4h-2.3v11.2h2.3V93.7z"/>
	<path class="st3" d="M103.6,92.8c-1.1,0.8-2.4,1.2-3.8,1.1c-1.6,0.1-3.1-0.6-4.1-1.9c-1-1.6-1.5-3.5-1.4-5.4
		c-0.1-1.9,0.4-3.7,1.4-5.3c1-1.3,2.5-2,4.2-1.9c0.7,0,1.3,0.1,2,0.3c0.6,0.1,1.1,0.4,1.6,0.7l-0.5,1.3c-0.9-0.5-2-0.8-3.1-0.8
		c-1.1-0.1-2.2,0.5-2.9,1.4c-0.7,1.4-1.1,2.9-0.9,4.4c0,3.9,1.3,5.8,3.8,5.8c1.2,0,2.3-0.4,3.3-1L103.6,92.8z"/>
	<path class="st0" d="M110.5,93.6h-1.2V79.8h1.3L110.5,93.6L110.5,93.6z"/>
	<path class="st3" d="M125.5,92.8c-1.1,0.8-2.4,1.2-3.8,1.1c-1.6,0.1-3.1-0.6-4.1-1.9c-1-1.6-1.5-3.5-1.4-5.4
		c-0.1-1.9,0.4-3.7,1.4-5.3c1-1.3,2.5-2,4.2-1.9c0.7,0,1.3,0.1,2,0.3c0.6,0.1,1.1,0.4,1.6,0.7l-0.5,1.3c-0.9-0.5-2-0.8-3.1-0.8
		c-1.1-0.1-2.2,0.5-2.8,1.4c-0.7,1.4-1.1,2.9-1,4.4c0,3.9,1.3,5.8,3.8,5.8c1.2,0,2.3-0.4,3.3-1L125.5,92.8z"/>
	<path class="st3" d="M137.9,93.7h-2l-4.1-6.3H130v6.3h-1.6v-14h3.9c1.1-0.1,2.2,0.3,3.1,0.9c0.8,0.7,1.2,1.7,1.1,2.7
		c0,0.8-0.3,1.6-0.8,2.3c-0.6,0.7-1.4,1.2-2.3,1.4L137.9,93.7z M130,85.9h2c0.8,0,1.5-0.2,2.1-0.7c0.5-0.4,0.8-1.1,0.8-1.8
		c0-1.6-0.9-2.3-2.9-2.3H130L130,85.9L130,85.9z"/>
	<path class="st3" d="M147.5,93.7h-7.3v-14h7.2v1.4h-5.6v4.3h5.4v1.4h-5.4v5.4h5.7L147.5,93.7L147.5,93.7z"/>
	<path class="st3" d="M160.6,93.7h-1.7l-1.6-4.9h-4.6l-1.6,4.9h-1.7l4.6-14h2L160.6,93.7z M156.9,87.3l-1.8-5.7l-1.8,5.7H156.9
		L156.9,87.3z"/>
	<path class="st3" d="M171.6,81h-4.3v12.7h-1.6V81h-4.3v-1.3h10.3L171.6,81L171.6,81z"/>
	<path class="st3" d="M181,93.7h-6.3v-1.4h2.4V81.1h-2.4v-1.4h6.3v1.4h-2.3v11.2h2.3L181,93.7L181,93.7z"/>
	<path class="st3" d="M194.7,79.7l-4.6,14h-1.9l-4.6-14h1.7l3.8,12l3.9-12L194.7,79.7L194.7,79.7z"/>
	<path class="st3" d="M204.3,93.7H197v-14h7.2v1.4h-5.6v4.3h5.4v1.4h-5.4v5.4h5.7V93.7z"/>
</g>
<line class="st4" x1="204.7" y1="66.6" x2="5.3" y2="66.6"/>
</svg>
