<?xml version="1.0" encoding="utf-8"?>
<!-- Generator: Adobe Illustrator 21.1.0, SVG Export Plug-In . SVG Version: 6.00 Build 0)  -->
<svg version="1.1" id="Layer_1" xmlns="http://www.w3.org/2000/svg" xmlns:xlink="http://www.w3.org/1999/xlink" x="0px" y="0px"
	 viewBox="0 0 50 120" style="enable-background:new 0 0 50 120;" xml:space="preserve">
<style type="text/css">
	.st0{fill:#ED1C24;}
</style>
<title>round-down</title>
<g>
	<path class="st0" d="M33.8,90.5c0.8,0,1.3,0.4,1.3,1s-0.4,1-1.3,1H16.1c-0.8,0-1.2-0.4-1.2-1s0.3-0.9,0.7-1.2l15.5-10.5v-0.1H16.2
		c-0.8,0-1.3-0.4-1.3-1s0.4-1,1.3-1h17.5c0.9,0,1.2,0.4,1.2,0.9s-0.2,0.7-0.7,1.1L18.5,90.4v0.1H33.8z"/>
	<path class="st0" d="M28.4,72c2.6-0.1,5-1.8,5-4.4c0-3.2-2.3-4-2.3-4.9c0-0.6,0.2-0.9,1-0.9c0.9,0,3,2.3,3,5.7
		c0,4.7-3.8,6.7-7.5,6.7s-7.5-2.2-7.5-6.3s3.5-6.3,7.2-6.3c0.5,0,1.2,0.2,1.2,1.4v9L28.4,72L28.4,72z M26.8,63.7
		c-2.5,0.1-5.1,1.5-5.1,4.2s2.6,4.1,5.1,4.2V63.7z"/>
	<path class="st0" d="M20.8,51.1c-0.6-0.2-0.9-0.6-0.9-1.1c0-0.6,0.3-0.9,0.9-1.1l10.9-3.4v-0.1L20.8,42c-0.6-0.2-0.9-0.5-0.9-1.1
		s0.4-0.9,0.9-0.9c0.2,0,0.4,0.1,0.7,0.2l12.6,4c0.8,0.3,0.9,0.9,0.9,1.1c0,0.5-0.2,0.9-1.2,1.2l-10.7,3.3v0.1l11,3.5
		c0.7,0.2,0.9,0.7,0.9,1.1c0,0.3-0.3,0.9-0.9,1.1l-12.5,4.2C21.2,59.9,21,60,20.9,60c-0.5,0-0.9-0.4-0.9-0.9c0-0.6,0.3-0.9,0.9-1.1
		l10.9-3.4v-0.1L20.8,51.1z"/>
	<path class="st0" d="M22.2,27.9c0.4,0,1,0.2,1,1s-1.6,1.8-1.6,3.8c0,1.4,0.7,2.9,2.1,2.9c0.7,0,1.4-0.4,1.7-1.4l1.2-3
		c0.8-2,1.8-3.7,4.1-3.7c2.6,0,4.3,2.3,4.3,5.4c0,3.2-1.9,5.3-2.8,5.3c-0.3,0-1-0.4-1-0.9c0-0.9,2.1-1.9,2.1-4.5
		c0-1.9-1.1-3.2-2.5-3.2c-1.3,0-1.8,1-2.3,2l-1.4,3.6c-0.6,1.5-1.5,2.6-3.3,2.6c-2.4,0-3.9-2.4-3.9-4.6
		C19.9,30.3,21.1,27.9,22.2,27.9z"/>
</g>
</svg>
