<svg id="Layer_2" data-name="Layer 2" xmlns="http://www.w3.org/2000/svg" viewBox="0 0 114.42 80.48"><defs><style>.cls-1{opacity:0.69;}.cls-2{fill:#fff;}.cls-3{fill:#3c1212;fill-rule:evenodd;opacity:0.12;}.cls-4{fill:#323232;}</style></defs><title>play-BW</title><g id="YouTube_icon" data-name="YouTube icon" class="cls-1"><path id="Triangle" class="cls-2" d="M47.18,55.84l30.92-16L47.18,23.69Z" transform="translate(-1.79 -0.76)"/><path id="The_Sharpness" data-name="The Sharpness" class="cls-3" d="M47.18,23.69,74.3,41.8l3.8-2Z" transform="translate(-1.79 -0.76)"/><g id="Lozenge"><path class="cls-4" d="M115.07,18.12s-1.12-7.88-4.55-11.36c-4.35-4.56-9.23-4.58-11.46-4.85C83,.76,59,.76,59,.76h0s-24,0-40,1.16c-2.24.27-7.11.29-11.46,4.85C4.05,10.24,2.93,18.12,2.93,18.12A173,173,0,0,0,1.79,36.64v8.68A173,173,0,0,0,2.93,63.84S4.05,71.73,7.48,75.2c4.35,4.56,10.07,4.41,12.62,4.89C29.25,81,59,81.24,59,81.24s24,0,40.05-1.19c2.24-.27,7.11-.29,11.46-4.85,3.43-3.47,4.55-11.36,4.55-11.36a173.35,173.35,0,0,0,1.14-18.52V36.64A173.35,173.35,0,0,0,115.07,18.12ZM47.19,55.84V23.69L78.1,39.82Z" transform="translate(-1.79 -0.76)"/></g></g></svg>