<svg id="Layer_1" data-name="Layer 1" xmlns="http://www.w3.org/2000/svg" viewBox="0 0 210.15 87.09">
  <defs>
    <style>
      .cls-1 {
        fill: #fff;
      }

      .cls-2 {
        fill: none;
        stroke: #fff;
        stroke-width: 0.5px;
      }
    </style>
  </defs>
  <title>RSKlogo_reverse</title>
  <path class="cls-1" d="M60.81,32.48A22.5,22.5,0,1,1,38.31,10,22.5,22.5,0,0,1,60.81,32.48ZM40,32.94a6.25,6.25,0,0,0,3.42-2,5.07,5.07,0,0,0,1.24-3.37,4.89,4.89,0,0,0-1.71-4,7,7,0,0,0-4.66-1.43H32.48V42.84H34.9V33.46h2.66l6.09,9.38h3ZM34.9,24.28H38q4.22,0,4.21,3.45A3.29,3.29,0,0,1,41,30.32a4.54,4.54,0,0,1-3.09,1h-3V24.28Z" transform="translate(-15.6 -9.98)"/>
  <path class="cls-1" d="M123.18,32.48A22.5,22.5,0,1,1,100.68,10,22.5,22.5,0,0,1,123.18,32.48Zm-17.43-10a14,14,0,0,0-4.1-.62A7.4,7.4,0,0,0,97,23.25a4.75,4.75,0,0,0-1.85,4A4.46,4.46,0,0,0,95.47,29a4.75,4.75,0,0,0,1,1.47,6,6,0,0,0,1.3,1q0.65,0.37,2.87,1.4a8.87,8.87,0,0,1,3,1.95,3.46,3.46,0,0,1,.81,2.31,3.6,3.6,0,0,1-1.24,2.9,4.91,4.91,0,0,1-3.29,1.05,10.35,10.35,0,0,1-4.12-1.05l-0.5,2.11a10.21,10.21,0,0,0,4.67,1,7.33,7.33,0,0,0,4.78-1.66,5.67,5.67,0,0,0,2-4.66,5,5,0,0,0-.46-2.18A5.56,5.56,0,0,0,105.08,33a7.61,7.61,0,0,0-1.5-1.13q-0.74-.41-3-1.46Q97.46,29,97.46,27.15a2.79,2.79,0,0,1,1.18-2.41,5.12,5.12,0,0,1,3.06-.85,11,11,0,0,1,3.5.63Z" transform="translate(-15.6 -9.98)"/>
  <path class="cls-1" d="M163,33.9h-9.37v9.53h-3V33.9H141v-3h9.53V21.32h3v9.53H163v3Z" transform="translate(-15.6 -9.98)"/>
  <path class="cls-1" d="M225.75,32.48A22.5,22.5,0,1,1,203.25,10,22.5,22.5,0,0,1,225.75,32.48Zm-22-1.64,8-8.67H209l-9.14,9.89V22.17h-2.42V42.84h2.42V35.06L202,32.69l7,10.14h3Z" transform="translate(-15.6 -9.98)"/>
  <g>
    <path class="cls-1" d="M23.43,83.71A7.88,7.88,0,0,0,21,83.28a3.56,3.56,0,0,0-2.15.61A2,2,0,0,0,18,85.61q-0.05,1.32,2.15,2.34c1.08,0.5,1.8.85,2.15,1a5.43,5.43,0,0,1,1.07.8A4,4,0,0,1,24.22,91a3.6,3.6,0,0,1,.33,1.56,4.07,4.07,0,0,1-1.44,3.33,5.19,5.19,0,0,1-3.4,1.18,6.82,6.82,0,0,1-3.32-.78l0.35-1.48a7,7,0,0,0,2.9.78A3.42,3.42,0,0,0,22,94.84a2.57,2.57,0,0,0,.87-2.06,2.53,2.53,0,0,0-.55-1.65,6,6,0,0,0-2.09-1.39q-1.58-.74-2-1A4.3,4.3,0,0,1,17.23,88a3.38,3.38,0,0,1-.71-1.05,3.17,3.17,0,0,1-.25-1.27,3.4,3.4,0,0,1,1.31-2.85,5.24,5.24,0,0,1,3.32-1,10.21,10.21,0,0,1,2.91.43Z" transform="translate(-15.6 -9.98)"/>
    <path class="cls-1" d="M37.36,83.48H32.83V96.8H31.11V83.48H26.54V82.07H37.36v1.41Z" transform="translate(-15.6 -9.98)"/>
    <path class="cls-1" d="M49.4,96.8H47.27L43,90.12H41.08V96.8H39.36V82.07h4.15a5,5,0,0,1,3.3,1A3.5,3.5,0,0,1,48,85.93a3.62,3.62,0,0,1-.88,2.4,4.44,4.44,0,0,1-2.43,1.43Zm-8.32-8.16h2.14a3.16,3.16,0,0,0,2.18-.74A2.38,2.38,0,0,0,46.24,86q0-2.47-3-2.47H41.08v5.08Z" transform="translate(-15.6 -9.98)"/>
    <path class="cls-1" d="M61.4,96.8H59.61L58,91.64H53.16L51.5,96.8H49.72l4.82-14.73H56.6Zm-3.91-6.64-1.93-6-1.93,6h3.86Z" transform="translate(-15.6 -9.98)"/>
    <path class="cls-1" d="M72.72,83.48H68.19V96.8H66.47V83.48H61.9V82.07H72.72v1.41Z" transform="translate(-15.6 -9.98)"/>
    <path class="cls-1" d="M83,96.8H75.3V82.07h7.62v1.48H77v4.57h5.7v1.48H77v5.7h6V96.8Z" transform="translate(-15.6 -9.98)"/>
    <path class="cls-1" d="M95.74,95.74a6.57,6.57,0,0,1-4,1.33,5.11,5.11,0,0,1-4.34-1.94,9.3,9.3,0,0,1-1.48-5.69,9.58,9.58,0,0,1,1.43-5.63,5,5,0,0,1,4.39-2,8,8,0,0,1,2.1.28,5.06,5.06,0,0,1,1.68.74L95,84.14a6.3,6.3,0,0,0-3.23-.86,3.4,3.4,0,0,0-3,1.48,8.56,8.56,0,0,0-1,4.67q0,6.15,4,6.15A3.52,3.52,0,0,0,94,94.95V91.33H91.36V89.84h4.37v5.9Z" transform="translate(-15.6 -9.98)"/>
    <path class="cls-1" d="M106,96.8H99.29V95.31h2.5V83.55h-2.5V82.07H106v1.48h-2.46V95.31H106V96.8Z" transform="translate(-15.6 -9.98)"/>
    <path class="cls-1" d="M119.06,95.86a6.82,6.82,0,0,1-4,1.21,5.11,5.11,0,0,1-4.34-2,9.25,9.25,0,0,1-1.49-5.67,9.55,9.55,0,0,1,1.44-5.61,5,5,0,0,1,4.39-2,8.47,8.47,0,0,1,2.11.27,5.18,5.18,0,0,1,1.68.71l-0.57,1.33a6.51,6.51,0,0,0-3.23-.82,3.4,3.4,0,0,0-3,1.48,8.59,8.59,0,0,0-1,4.68q0,6.15,4,6.15a6.86,6.86,0,0,0,3.49-1.05Z" transform="translate(-15.6 -9.98)"/>
    <path class="cls-1" d="M126.36,96.79H125V82.23h1.32V96.79Z" transform="translate(-15.6 -9.98)"/>
    <path class="cls-1" d="M142.17,95.86a6.82,6.82,0,0,1-4,1.21,5.11,5.11,0,0,1-4.34-2,9.27,9.27,0,0,1-1.48-5.67,9.58,9.58,0,0,1,1.44-5.61,5,5,0,0,1,4.39-2,8.44,8.44,0,0,1,2.1.27,5.19,5.19,0,0,1,1.68.71l-0.57,1.33a6.52,6.52,0,0,0-3.23-.82,3.4,3.4,0,0,0-3,1.48,8.59,8.59,0,0,0-1,4.68q0,6.15,4,6.15a6.86,6.86,0,0,0,3.49-1.05Z" transform="translate(-15.6 -9.98)"/>
    <path class="cls-1" d="M155.19,96.8h-2.13l-4.31-6.68h-1.87V96.8h-1.72V82.07h4.15a5,5,0,0,1,3.31,1,3.5,3.5,0,0,1,1.21,2.84,3.62,3.62,0,0,1-.88,2.4,4.44,4.44,0,0,1-2.43,1.43Zm-8.32-8.16H149a3.17,3.17,0,0,0,2.18-.74A2.38,2.38,0,0,0,152,86q0-2.47-3-2.47h-2.18v5.08Z" transform="translate(-15.6 -9.98)"/>
    <path class="cls-1" d="M165.28,96.8h-7.7V82.07h7.62v1.48h-5.9v4.57H165v1.48h-5.7v5.7h6V96.8Z" transform="translate(-15.6 -9.98)"/>
    <path class="cls-1" d="M179.16,96.8h-1.79l-1.65-5.16h-4.81l-1.65,5.16h-1.78l4.82-14.73h2.06Zm-3.91-6.64-1.93-6-1.93,6h3.86Z" transform="translate(-15.6 -9.98)"/>
    <path class="cls-1" d="M190.69,83.48h-4.53V96.8h-1.72V83.48h-4.57V82.07h10.82v1.41Z" transform="translate(-15.6 -9.98)"/>
    <path class="cls-1" d="M200.55,96.8h-6.68V95.31h2.5V83.55h-2.5V82.07h6.68v1.48h-2.46V95.31h2.46V96.8Z" transform="translate(-15.6 -9.98)"/>
    <path class="cls-1" d="M215,82.07L210.19,96.8h-2.05l-4.81-14.73h1.79l4.05,12.66,4.06-12.66H215Z" transform="translate(-15.6 -9.98)"/>
    <path class="cls-1" d="M225.1,96.8h-7.7V82.07H225v1.48h-5.9v4.57h5.7v1.48h-5.7v5.7h6V96.8Z" transform="translate(-15.6 -9.98)"/>
  </g>
  <line class="cls-2" x1="209.92" y1="58.34" y2="58.34"/>
</svg>
