<?xml version="1.0" encoding="utf-8"?>
<!-- Generator: Adobe Illustrator 21.0.0, SVG Export Plug-In . SVG Version: 6.00 Build 0)  -->
<svg version="1.1" id="Layer_1" xmlns="http://www.w3.org/2000/svg" xmlns:xlink="http://www.w3.org/1999/xlink" x="0px" y="0px"
	 viewBox="0 0 32 32" style="enable-background:new 0 0 32 32;" xml:space="preserve">
<style type="text/css">
	.st0{fill:#A0A0A0;}
</style>
<title>ytwhite</title>
<g>
	<path class="st0" d="M15.9,13.6c0.1,0,0.2,0,0.3-0.1c0.1-0.1,0.1-0.2,0.1-0.3v-2.4c0-0.1,0-0.2-0.1-0.2c-0.1-0.1-0.2-0.1-0.3-0.1
		c-0.1,0-0.2,0-0.3,0.1c-0.1,0.1-0.1,0.1-0.1,0.2v2.4c0,0.1,0,0.2,0.1,0.3C15.7,13.5,15.8,13.6,15.9,13.6z"/>
	<path class="st0" d="M17.9,18c-0.1,0-0.3,0-0.4,0.1c-0.1,0.1-0.3,0.2-0.4,0.3v-1.8h-0.8v5.5h0.8v-0.3c0.1,0.1,0.2,0.2,0.4,0.3
		c0.1,0.1,0.3,0.1,0.4,0.1c0.2,0,0.4-0.1,0.6-0.2c0.1-0.2,0.2-0.4,0.2-0.7v-2.2c0-0.3,0-0.5-0.2-0.8C18.3,18.1,18.1,18,17.9,18z
		 M17.9,21.2c0,0.1,0,0.2-0.1,0.3c-0.1,0.1-0.1,0.1-0.2,0.1c-0.1,0-0.1,0-0.2,0c-0.1,0-0.1-0.1-0.2-0.1v-2.6c0,0,0.1-0.1,0.2-0.1
		c0.1,0,0.1,0,0.2,0c0.1,0,0.2,0,0.2,0.1c0.1,0.1,0.1,0.2,0.1,0.3C17.9,19.2,17.9,21.2,17.9,21.2z"/>
	<polygon class="st0" points="10.3,17.5 11.2,17.5 11.2,22.1 12.1,22.1 12.1,17.5 13.1,17.5 13.1,16.7 10.3,16.7 	"/>
	<path class="st0" d="M14.9,21.2c-0.1,0.1-0.2,0.2-0.2,0.2c-0.1,0-0.1,0.1-0.2,0.1c-0.1,0-0.1,0-0.2-0.1c0-0.1-0.1-0.1-0.1-0.2v-3.1
		h-0.8v3.4c0,0.2,0,0.4,0.1,0.5c0.1,0.1,0.3,0.2,0.4,0.2c0.2,0,0.3,0,0.5-0.1c0.2-0.1,0.3-0.2,0.5-0.4v0.5h0.8v-4.1h-0.8V21.2z"/>
	<path class="st0" d="M16,0C7.2,0,0,7.2,0,16s7.2,16,16,16s16-7.2,16-16S24.8,0,16,0z M17.9,9.8h0.9v3.4c0,0.1,0,0.2,0.1,0.2
		c0,0.1,0.1,0.1,0.2,0.1c0.1,0,0.2,0,0.3-0.1c0.1-0.1,0.2-0.1,0.3-0.2V9.8h0.9v4.5h-0.9v-0.5c-0.1,0.2-0.3,0.3-0.5,0.4
		c-0.2,0.1-0.3,0.1-0.5,0.1c-0.2,0-0.4-0.1-0.5-0.2c-0.1-0.2-0.2-0.4-0.2-0.6V9.8z M14.6,10.8c0-0.3,0.1-0.6,0.4-0.8
		c0.3-0.2,0.6-0.3,1-0.3c0.3,0,0.7,0.1,0.9,0.3c0.2,0.2,0.4,0.5,0.4,0.8v2.3c0,0.3-0.1,0.7-0.4,0.9c-0.3,0.2-0.6,0.4-1,0.3
		c-0.4,0-0.7-0.1-1-0.3c-0.2-0.2-0.4-0.6-0.4-0.9L14.6,10.8L14.6,10.8z M12.1,8.2l0.7,2.4h0.1l0.6-2.4h1l-1.2,3.5v2.5h-1v-2.4
		L11,8.2H12.1L12.1,8.2z M24,20.9c0,1.6-1.3,2.9-2.9,2.9H10.9c-1.6,0-2.9-1.3-2.9-2.9v-2.4c0-1.6,1.3-2.9,2.9-2.9h10.2
		c1.6,0,2.9,1.3,2.9,2.9V20.9z"/>
	<path class="st0" d="M20.3,18c-0.3,0-0.7,0.1-0.9,0.3c-0.2,0.2-0.4,0.5-0.3,0.9V21c0,0.3,0.1,0.7,0.3,0.9c0.2,0.2,0.5,0.3,0.9,0.3
		c0.3,0,0.7-0.1,0.9-0.3c0.2-0.3,0.3-0.6,0.3-0.9v-0.2h-0.8V21c0,0.2,0,0.3-0.1,0.5c-0.1,0.1-0.2,0.1-0.3,0.1c-0.1,0-0.2,0-0.3-0.1
		c-0.1-0.1-0.1-0.3-0.1-0.5v-0.8h1.6v-1c0-0.3-0.1-0.6-0.3-0.9C21,18.1,20.6,18,20.3,18z M20.6,19.6h-0.7v-0.4c0-0.1,0-0.3,0.1-0.4
		c0.1-0.1,0.2-0.1,0.3-0.1c0.1,0,0.2,0,0.3,0.1c0.1,0.1,0.1,0.2,0.1,0.4L20.6,19.6L20.6,19.6z"/>
</g>
</svg>
