<svg id="Layer_1" data-name="Layer 1" xmlns="http://www.w3.org/2000/svg" viewBox="0 0 32 32">
  <defs>
    <style>
      .cls-1 {
        fill: #fff;
      }
    </style>
  </defs>
  <title>ytwhite</title>
  <g>
    <path class="cls-1" d="M16.36,14.06a0.41,0.41,0,0,0,.29-0.1,0.37,0.37,0,0,0,.11-0.28V11.25A0.29,0.29,0,0,0,16.65,11a0.45,0.45,0,0,0-.29-0.09,0.4,0.4,0,0,0-.27.09,0.3,0.3,0,0,0-.1.24v2.43a0.39,0.39,0,0,0,.1.28A0.35,0.35,0,0,0,16.36,14.06Z" transform="translate(-0.5 -0.5)"/>
    <path class="cls-1" d="M18.37,18.55a0.8,0.8,0,0,0-.37.1,1.29,1.29,0,0,0-.35.28V17.16H16.83v5.49h0.82V22.34a1,1,0,0,0,.35.27,1,1,0,0,0,.42.09A0.67,0.67,0,0,0,19,22.47a1,1,0,0,0,.19-0.66V19.57a1.2,1.2,0,0,0-.2-0.76A0.7,0.7,0,0,0,18.37,18.55Zm0,3.15a0.44,0.44,0,0,1-.07.28,0.26,0.26,0,0,1-.22.09,0.45,0.45,0,0,1-.2,0,0.66,0.66,0,0,1-.19-0.14V19.36a0.59,0.59,0,0,1,.17-0.12,0.42,0.42,0,0,1,.17,0,0.31,0.31,0,0,1,.25.11,0.48,0.48,0,0,1,.09.31V21.7Z" transform="translate(-0.5 -0.5)"/>
    <polygon class="cls-1" points="10.26 17.46 11.2 17.46 11.2 22.15 12.11 22.15 12.11 17.46 13.06 17.46 13.06 16.66 10.26 16.66 10.26 17.46"/>
    <path class="cls-1" d="M15.41,21.68a1.15,1.15,0,0,1-.25.22,0.45,0.45,0,0,1-.22.08,0.2,0.2,0,0,1-.17-0.06,0.34,0.34,0,0,1-.05-0.21V18.6H13.91V22a0.87,0.87,0,0,0,.14.54,0.5,0.5,0,0,0,.42.18,1,1,0,0,0,.47-0.13,1.76,1.76,0,0,0,.47-0.37v0.45h0.81V18.6H15.41v3.08Z" transform="translate(-0.5 -0.5)"/>
    <path class="cls-1" d="M16.5,0.5a16,16,0,1,0,16,16A16,16,0,0,0,16.5.5Zm1.93,9.76h0.91v3.42a0.37,0.37,0,0,0,.06.23,0.22,0.22,0,0,0,.19.07,0.54,0.54,0,0,0,.26-0.09,1.24,1.24,0,0,0,.28-0.24V10.26H21v4.46H20.12V14.23a1.91,1.91,0,0,1-.52.42,1.16,1.16,0,0,1-.53.14,0.57,0.57,0,0,1-.48-0.2,0.94,0.94,0,0,1-.16-0.6V10.26Zm-3.38,1a1,1,0,0,1,.37-0.82,1.49,1.49,0,0,1,1-.31,1.35,1.35,0,0,1,.93.32,1.08,1.08,0,0,1,.36.83v2.3a1.16,1.16,0,0,1-.35.9,1.39,1.39,0,0,1-1,.33,1.34,1.34,0,0,1-1-.34,1.18,1.18,0,0,1-.36-0.9V11.28ZM12.56,8.68l0.67,2.42h0.06l0.63-2.42h1l-1.2,3.54v2.51h-1v-2.4L11.53,8.68h1ZM24.5,21.4a2.92,2.92,0,0,1-2.92,2.92H11.42A2.92,2.92,0,0,1,8.5,21.4V19.05a2.92,2.92,0,0,1,2.92-2.92H21.58a2.92,2.92,0,0,1,2.92,2.92V21.4Z" transform="translate(-0.5 -0.5)"/>
    <path class="cls-1" d="M20.81,18.5a1.22,1.22,0,0,0-.89.33,1.15,1.15,0,0,0-.34.86v1.82a1.29,1.29,0,0,0,.31.92,1.11,1.11,0,0,0,.86.33,1.21,1.21,0,0,0,.91-0.31,1.3,1.3,0,0,0,.3-0.94V21.3H21.13v0.18a0.89,0.89,0,0,1-.08.46,0.34,0.34,0,0,1-.28.11,0.3,0.3,0,0,1-.27-0.12,0.89,0.89,0,0,1-.08-0.45V20.72H22v-1a1.21,1.21,0,0,0-.3-0.88A1.13,1.13,0,0,0,20.81,18.5Zm0.32,1.59H20.42V19.68a0.6,0.6,0,0,1,.08-0.36,0.32,0.32,0,0,1,.28-0.11,0.31,0.31,0,0,1,.27.11,0.59,0.59,0,0,1,.09.36v0.41Z" transform="translate(-0.5 -0.5)"/>
  </g>
</svg>
